<svg xmlns="http://www.w3.org/2000/svg" viewBox="0 0 1000 1000">
  <defs>
    <style>
      .shape {
        fill: #fff;
      }
    </style>
  </defs>
  <title>MultiPattern</title>
  <g>
    <g>
      <path class="shape" d="M739.48,871.24a1.56,1.56,0,0,1-1.74-2.38l9.59-13.68a1.56,1.56,0,1,1,2.55,1.79l-9.59,13.68A1.55,1.55,0,0,1,739.48,871.24Z"/>
      <path class="shape" d="M746.79,880.66a1.56,1.56,0,0,1-1.27-2.81l10.9-6.67a1.56,1.56,0,0,1,1.62,2.65l-10.9,6.67A1.56,1.56,0,0,1,746.79,880.66Z"/>
      <path class="shape" d="M727.87,869.28a1.56,1.56,0,0,1-2-1.45l-.3-12.78a1.56,1.56,0,0,1,3.11-.07l.3,12.78A1.56,1.56,0,0,1,727.87,869.28Z"/>
    </g>
    <g>
      <path class="shape" d="M95,678.43a1.86,1.86,0,0,1-1.86-3L105.78,660a1.86,1.86,0,1,1,2.88,2.35L96,677.8A1.85,1.85,0,0,1,95,678.43Z"/>
      <path class="shape" d="M102.87,690.29a1.86,1.86,0,0,1-1.27-3.46l13.57-7a1.86,1.86,0,0,1,1.7,3.3l-13.57,7A1.86,1.86,0,0,1,102.87,690.29Z"/>
      <path class="shape" d="M81.35,675.06a1.86,1.86,0,0,1-2.28-1.9l.77-15.24a1.86,1.86,0,0,1,3.71.19l-.77,15.24A1.86,1.86,0,0,1,81.35,675.06Z"/>
    </g>
    <path class="shape" d="M909.3,21.17a.85.85,0,0,1-.81-1.1c1.94-6.14,2.1-10.94.48-14.29a8.53,8.53,0,0,0-3.25-3,6.36,6.36,0,0,1-2.46,3.58c-2.71,2-6.92,2.38-9,.74-1.38-1.08-1.69-2.84-.85-4.83a5.55,5.55,0,0,1,5.36-3.29A13.88,13.88,0,0,1,904.09,0a7.68,7.68,0,0,0-.38-1.22C900.34-9.61,885.84-8.41,881.07-8a.85.85,0,0,1-.91-.77.85.85,0,0,1,.77-.91c5.07-.42,20.51-1.7,24.35,7.89a8.37,8.37,0,0,1,.62,2.7A10.78,10.78,0,0,1,910.5,5c1.81,3.74,1.67,9-.39,15.53A.85.85,0,0,1,909.3,21.17ZM899,.63h-.19c-1.94,0-3.23.81-3.84,2.26-.54,1.29-.43,2.24.33,2.84,1.35,1.05,4.68.95,7-.76a4.66,4.66,0,0,0,1.92-3A12.84,12.84,0,0,0,899,.63Z"/>
    <g>
      <path class="shape" d="M98.62,79c-2.07-6.56-2.2-11.79-.39-15.53a10.78,10.78,0,0,1,4.6-4.15,8.37,8.37,0,0,1,.62-2.7c3.84-9.6,19.28-8.32,24.35-7.89a.85.85,0,1,1-.14,1.69c-4.77-.4-19.27-1.6-22.64,6.84a7.68,7.68,0,0,0-.38,1.22A13.88,13.88,0,0,1,110,57.33a5.55,5.55,0,0,1,5.36,3.29c.84,2,.53,3.75-.85,4.83-2.09,1.64-6.31,1.29-9-.74A6.36,6.36,0,0,1,103,61.13a8.53,8.53,0,0,0-3.25,3c-1.61,3.34-1.45,8.15.48,14.29a.85.85,0,1,1-1.61.51Zm5.94-18.66a4.66,4.66,0,0,0,1.92,3c2.28,1.71,5.61,1.81,7,.76.76-.6.88-1.55.33-2.84-.61-1.45-1.9-2.21-3.84-2.26h-.19A12.84,12.84,0,0,0,104.55,60.31Z"/>
      <path class="shape" d="M139.85,52.49a.85.85,0,0,0,.27-1.65,42.64,42.64,0,0,0-7-1.42.85.85,0,0,0-.2,1.68,41.79,41.79,0,0,1,6.64,1.34A.84.84,0,0,0,139.85,52.49Z"/>
    </g>
    <g>
      <path class="shape" d="M909.3,1021.17a.85.85,0,0,1-.81-1.1c1.94-6.14,2.1-10.94.48-14.29a8.53,8.53,0,0,0-3.25-3,6.36,6.36,0,0,1-2.46,3.58c-2.71,2-6.92,2.38-9,.74-1.38-1.08-1.69-2.84-.85-4.83a5.55,5.55,0,0,1,5.36-3.29,13.88,13.88,0,0,1,5.32,1.11,7.68,7.68,0,0,0-.38-1.22c-3.37-8.43-17.87-7.23-22.64-6.84a.85.85,0,1,1-.14-1.69c5.07-.42,20.51-1.7,24.35,7.89a8.37,8.37,0,0,1,.62,2.7,10.78,10.78,0,0,1,4.6,4.15c1.81,3.74,1.67,9-.39,15.53A.85.85,0,0,1,909.3,1021.17ZM899,1000.63h-.19c-1.94,0-3.23.81-3.84,2.26-.54,1.29-.43,2.24.33,2.84,1.35,1.05,4.68.95,7-.76a4.66,4.66,0,0,0,1.92-3A12.84,12.84,0,0,0,899,1000.63Z"/>
      <path class="shape" d="M868.87,994.1a.85.85,0,0,1-.27-1.65,42.64,42.64,0,0,1,7-1.42.85.85,0,0,1,.2,1.68,41.79,41.79,0,0,0-6.64,1.34A.84.84,0,0,1,868.87,994.1Z"/>
    </g>
    <path class="shape" d="M323.13,848.88a1,1,0,0,1-.62-1.33l8.25-23.39a1,1,0,0,1,1.33-.64l26.61,9.38a1,1,0,0,1,.64,1.33l-8.25,23.39a1,1,0,0,1-1.33.64l-26.61-9.38Zm9.24-23-7.55,21.43L349.46,856,357,834.53Z"/>
    <g>
      <path class="shape" d="M310.12,385.52a3.66,3.66,0,1,0,1.82,3.66A3.68,3.68,0,0,0,310.12,385.52Z"/>
      <path class="shape" d="M318,400.18a14.8,14.8,0,0,0,4.56-6.63A15.11,15.11,0,0,0,304,374.29a3.59,3.59,0,0,0-.93-.77,3.68,3.68,0,0,0-5.5,2.68,3.56,3.56,0,0,0,.18,1.7,14.79,14.79,0,0,0-3.76,5.91,15.11,15.11,0,0,0,17.75,19.48,3.58,3.58,0,0,0,.78.61,3.68,3.68,0,0,0,5.5-2.68A3.52,3.52,0,0,0,318,400.18Zm-21.87-15.64a12.53,12.53,0,0,1,3-4.84l.22.15a3.68,3.68,0,0,0,5.5-2.68,3.49,3.49,0,0,0,0-.78,12.84,12.84,0,0,1,15.52,16.41,12.53,12.53,0,0,1-3.49,5.29,3.57,3.57,0,0,0-.72-.55,3.68,3.68,0,0,0-5.5,2.68,3.5,3.5,0,0,0,0,.94,12.83,12.83,0,0,1-14.56-16.63Z"/>
    </g>
    <g>
      <path class="shape" d="M625.15,573.74a4.24,4.24,0,1,0-1.7,4.41A4.26,4.26,0,0,0,625.15,573.74Z"/>
      <path class="shape" d="M618.82,592a17.14,17.14,0,0,0,9.23-1.3,17.5,17.5,0,0,0,1.89-30.93,4.16,4.16,0,0,0-.07-1.39,4.26,4.26,0,0,0-6.59-2.6,4.13,4.13,0,0,0-1.3,1.49,17.13,17.13,0,0,0-8,1.42,17.5,17.5,0,0,0-2.71,30.4,4.15,4.15,0,0,0,.1,1.14,4.26,4.26,0,0,0,6.59,2.6A4.07,4.07,0,0,0,618.82,592ZM615,561.06a14.51,14.51,0,0,1,6.48-1.22c0,.1,0,.21,0,.31a4.26,4.26,0,0,0,6.59,2.6,4,4,0,0,0,.67-.6A14.87,14.87,0,0,1,627,588.24a14.51,14.51,0,0,1-7.25,1.16,4.13,4.13,0,0,0-.1-1,4.26,4.26,0,0,0-6.59-2.6,4.06,4.06,0,0,0-.8.74A14.86,14.86,0,0,1,615,561.06Z"/>
    </g>
    <path class="shape" d="M871.62,312.58H855.71a1.29,1.29,0,0,1-1.29-1.29V292a1.29,1.29,0,0,1,1.29-1.29h15.91a1.29,1.29,0,0,1,1.29,1.29v19.27A1.29,1.29,0,0,1,871.62,312.58ZM857,310h13.33V293.31H857Z"/>
    <path class="shape" d="M508,130.78H492a1.29,1.29,0,0,1-1.29-1.29V110.21a1.29,1.29,0,0,1,1.29-1.29H508a1.29,1.29,0,0,1,1.29,1.29v19.27A1.29,1.29,0,0,1,508,130.78Zm-14.62-2.58h13.33V111.5H493.34Z"/>
  </g>
</svg>
