<svg xmlns="http://www.w3.org/2000/svg" viewBox="0 0 1000 1000">
  <defs>
    <style>
      .shape {
        fill: #fff;
      }
    </style>
  </defs>
  <title>MultiPattern</title>
  <g>
    <g>
      <polygon class="shape" points="177.25 259.45 174.27 259.06 161.57 282.73 164.85 283.16 177.25 259.45"/>
      <path class="shape" d="M165.74,260.87c-.37,0-15.15,5.54-15.15,5.54L161,276.86,162,274l-7.4-6.77,10.71-3.83Z"/>
      <path class="shape" d="M178.25,262.44c.34.14,11.57,11.24,11.57,11.24L176.1,279l.18-3,9.52-3.17-8.22-7.87Z"/>
      <line class="shape" x1="174.27" y1="259.06" x2="161.15" y2="282.68"/>
    </g>
    <g>
      <path class="shape" d="M268.16,98.57a1.57,1.57,0,0,1-1.22-.57L256.16,84.93a1.58,1.58,0,1,1,2.43-2L269.38,96a1.58,1.58,0,0,1-1.22,2.58Z"/>
      <path class="shape" d="M261.52,108.67a1.57,1.57,0,0,1-.71-.17l-11.55-5.88a1.58,1.58,0,1,1,1.43-2.81l11.55,5.88a1.58,1.58,0,0,1-.72,3Z"/>
      <path class="shape" d="M279.74,95.65a1.58,1.58,0,0,1-1.57-1.49l-.71-12.94a1.58,1.58,0,0,1,3.15-.17L281.31,94a1.58,1.58,0,0,1-1.49,1.66Z"/>
    </g>
    <g>
      <path class="shape" d="M401.69,695.92a.85.85,0,0,1-.81-1.1c1.94-6.14,2.1-10.94.48-14.29a8.53,8.53,0,0,0-3.25-3,6.36,6.36,0,0,1-2.46,3.58c-2.71,2-6.92,2.38-9,.74-1.38-1.08-1.69-2.84-.85-4.83a5.55,5.55,0,0,1,5.36-3.29,13.88,13.88,0,0,1,5.32,1.11,7.68,7.68,0,0,0-.38-1.22c-3.37-8.43-17.87-7.23-22.64-6.84a.85.85,0,0,1-.14-1.69c5.07-.42,20.51-1.7,24.35,7.89a8.37,8.37,0,0,1,.62,2.7,10.78,10.78,0,0,1,4.6,4.15c1.81,3.74,1.67,9-.39,15.53A.85.85,0,0,1,401.69,695.92Zm-10.3-20.54h-.19c-1.94,0-3.23.81-3.84,2.26-.54,1.29-.43,2.24.33,2.84,1.35,1.05,4.68.95,7-.76a4.66,4.66,0,0,0,1.92-3A12.84,12.84,0,0,0,391.39,675.38Z"/>
      <path class="shape" d="M361.26,668.85a.85.85,0,0,1-.27-1.65,42.64,42.64,0,0,1,7-1.42.85.85,0,0,1,.2,1.68,41.79,41.79,0,0,0-6.64,1.34A.84.84,0,0,1,361.26,668.85Z"/>
    </g>
    <g>
      <path class="shape" d="M515.2,334.12c-8.25.82-14.44-.31-18.41-3.36-1.61-1.24-2.94-3.68-3.76-6.45a10.08,10.08,0,0,1-3-1.39c-10.37-6.89-5.06-24.77-3.31-30.65a1,1,0,1,1,2,.58c-1.64,5.52-6.63,22.32,2.48,28.37a9.25,9.25,0,0,0,1.35.75,16.72,16.72,0,0,1,0-6.55c.71-3,2.56-5,5.2-5.51s4.56.3,5.49,2.19c1.41,2.87,0,7.75-3.1,10.44a7.66,7.66,0,0,1-4.83,2,10.28,10.28,0,0,0,2.79,4.58c3.54,2.73,9.25,3.72,17,2.95a1,1,0,1,1,.2,2Zm-20.54-11.59a5.61,5.61,0,0,0,4.07-1.51c2.58-2.26,3.52-6.17,2.61-8-.52-1-1.61-1.41-3.27-1.09-1.86.36-3.07,1.7-3.61,4l-.05.23A15.46,15.46,0,0,0,494.66,322.52Z"/>
      <path class="shape" d="M494.13,279a1,1,0,0,0-1.88-.73,51.36,51.36,0,0,0-3.4,7.88,1,1,0,0,0,1.93.65,50.33,50.33,0,0,1,3.22-7.5A1,1,0,0,0,494.13,279Z"/>
    </g>
    <path class="shape" d="M896,805.1a1,1,0,0,1-1-1l-.32-24.8a1,1,0,0,1,1-1.06l28.21-.36a1,1,0,0,1,1.06,1l.32,24.8a1,1,0,0,1-1,1.06L896,805.1Zm.74-24.82L897,803l26.13-.34-.29-22.72Z"/>
    <path class="shape" d="M658.13,40.58a.75.75,0,0,1-.47-.94l5.52-17a.75.75,0,0,1,.95-.48l19.33,6.28a.75.75,0,0,1,.48.95l-5.52,17a.75.75,0,0,1-.95.48l-19.33-6.28Zm6.25-16.76-5.06,15.57,17.9,5.82,5.06-15.57Z"/>
    <path class="shape" d="M151.46,538.7a1,1,0,0,1-1-1l-.32-24.8a1,1,0,0,1,1-1.06l28.21-.36a1,1,0,0,1,1.06,1l.32,24.8a1,1,0,0,1-1,1.06l-28.21.36Zm.74-24.82.29,22.72,26.13-.34-.29-22.72Z"/>
    <g>
      <path class="shape" d="M995.62,144.69a3.66,3.66,0,1,0,2.9,2.88A3.68,3.68,0,0,0,995.62,144.69Z"/>
      <path class="shape" d="M1007.82,156a14.8,14.8,0,0,0,2.18-7.74A15.11,15.11,0,0,0,986.2,136a3.59,3.59,0,0,0-1.13-.42,3.68,3.68,0,0,0-4.34,4.31,3.56,3.56,0,0,0,.72,1.55,14.79,14.79,0,0,0-1.66,6.81A15.11,15.11,0,0,0,1002.89,161a3.58,3.58,0,0,0,.94.32,3.68,3.68,0,0,0,4.34-4.31A3.52,3.52,0,0,0,1007.82,156Zm-25.74-7.74a12.53,12.53,0,0,1,1.29-5.55l.26.07A3.68,3.68,0,0,0,988,138.5a3.49,3.49,0,0,0-.24-.74,12.84,12.84,0,0,1,20,10.53,12.53,12.53,0,0,1-1.6,6.13,3.57,3.57,0,0,0-.85-.29,3.68,3.68,0,0,0-4.34,4.31,3.5,3.5,0,0,0,.31.89,12.83,12.83,0,0,1-19.15-11Z"/>
    </g>
    <g>
      <path class="shape" d="M450,991.43a3.66,3.66,0,1,0,2.9,2.88A3.68,3.68,0,0,0,450,991.43Z"/>
      <path class="shape" d="M462.2,1002.76a14.8,14.8,0,0,0,2.18-7.74,15.11,15.11,0,0,0-23.8-12.24,3.59,3.59,0,0,0-1.13-.42,3.68,3.68,0,0,0-4.34,4.31,3.56,3.56,0,0,0,.72,1.55,14.79,14.79,0,0,0-1.66,6.81,15.11,15.11,0,0,0,23.09,12.71,3.58,3.58,0,0,0,.94.32,3.68,3.68,0,0,0,4.34-4.31A3.52,3.52,0,0,0,462.2,1002.76ZM436.46,995a12.53,12.53,0,0,1,1.29-5.55l.26.07a3.68,3.68,0,0,0,4.34-4.31,3.49,3.49,0,0,0-.24-.74,12.84,12.84,0,0,1,20,10.53,12.53,12.53,0,0,1-1.6,6.13,3.57,3.57,0,0,0-.85-.29,3.68,3.68,0,0,0-4.34,4.31,3.5,3.5,0,0,0,.31.89,12.83,12.83,0,0,1-19.15-11Z"/>
    </g>
    <g>
      <path class="shape" d="M666.45,211.11a4.18,4.18,0,1,0,4.66,0A4.2,4.2,0,0,0,666.45,211.11Z"/>
      <path class="shape" d="M685.45,210.45a16.9,16.9,0,0,0-4.47-8,17.25,17.25,0,0,0-29.11,9.26,4.1,4.1,0,0,0-1.25.56,4.2,4.2,0,0,0,0,7,4.07,4.07,0,0,0,1.83.67,16.88,16.88,0,0,0,4.14,6.84,17.25,17.25,0,0,0,28.91-8.31,4.09,4.09,0,0,0,1-.49,4.2,4.2,0,0,0,0-7A4,4,0,0,0,685.45,210.45Zm-27.07,14.46a14.3,14.3,0,0,1-3.42-5.53l.27-.15a4.2,4.2,0,0,0,0-7,4,4,0,0,0-.79-.41,14.66,14.66,0,0,1,24.65-7.58,14.3,14.3,0,0,1,3.65,6.25,4.07,4.07,0,0,0-.92.46,4.2,4.2,0,0,0,0,7,4,4,0,0,0,1,.47,14.65,14.65,0,0,1-24.38,6.49Z"/>
    </g>
    <path class="shape" d="M7.82,156A14.8,14.8,0,0,0,10,148.28a15.06,15.06,0,0,0-15.1-15A15.1,15.1,0,0,0-13.8,136a3.59,3.59,0,0,0-1.13-.42,3.68,3.68,0,0,0-4.34,4.31,3.56,3.56,0,0,0,.72,1.55,14.79,14.79,0,0,0-1.66,6.81,15.06,15.06,0,0,0,15.1,15,15.1,15.1,0,0,0,8-2.27,3.58,3.58,0,0,0,.94.32A3.68,3.68,0,0,0,8.17,157,3.52,3.52,0,0,0,7.82,156Zm-25.74-7.74a12.53,12.53,0,0,1,1.29-5.55l.26.07A3.68,3.68,0,0,0-12,138.5a3.49,3.49,0,0,0-.24-.74,12.83,12.83,0,0,1,7.16-2.17,12.78,12.78,0,0,1,12.82,12.7,12.53,12.53,0,0,1-1.6,6.13,3.57,3.57,0,0,0-.85-.29,3.68,3.68,0,0,0-4.34,4.31,3.5,3.5,0,0,0,.31.89A12.83,12.83,0,0,1-5.1,161,12.78,12.78,0,0,1-17.92,148.28Z"/>
    <path class="shape" d="M743.62,729.29l-15.72-2.47a1.29,1.29,0,0,1-1.07-1.48l3-19a1.29,1.29,0,0,1,1.48-1.07L747,707.7a1.29,1.29,0,0,1,1.07,1.48l-3,19A1.29,1.29,0,0,1,743.62,729.29Zm-14-4.82,13.17,2.07L745.34,710,732.17,708Z"/>
  </g>
</svg>
